<svg xmlns="http://www.w3.org/2000/svg" width="136" height="37.281" viewBox="0 0 136 37.281">
  <defs>
    <style>
      .cls-1 {
        fill: #fff;
        fill-rule: evenodd;
      }
    </style>
  </defs>
  <path class="cls-1" d="M7.068,20.12a6.779,6.779,0,0,0-3.7,1.035,7.1,7.1,0,0,0-2.58,2.97A10.322,10.322,0,0,0-.162,28.7a10.345,10.345,0,0,0,.945,4.56,7.077,7.077,0,0,0,2.58,2.985A6.779,6.779,0,0,0,7.068,37.28a6.059,6.059,0,0,0,3.3-.87,5.231,5.231,0,0,0,2.04-2.37v3.03h5.1V20.33h-5.1v3.03a5.236,5.236,0,0,0-2.04-2.37,6.063,6.063,0,0,0-3.3-.87h0Zm1.65,4.5a3.492,3.492,0,0,1,2.655,1.095A4.17,4.17,0,0,1,12.408,28.7a4.18,4.18,0,0,1-1.035,2.97,3.468,3.468,0,0,1-2.655,1.11A3.455,3.455,0,0,1,6.063,31.7a4.232,4.232,0,0,1-1-3,4.233,4.233,0,0,1,1-3,3.455,3.455,0,0,1,2.655-1.08h0Zm11.1-9a2.47,2.47,0,0,0,.84,1.905,3.169,3.169,0,0,0,2.22.765,3.17,3.17,0,0,0,2.22-.765,2.472,2.472,0,0,0,.84-1.905,2.505,2.505,0,0,0-.84-1.935,3.17,3.17,0,0,0-2.22-.765,3.169,3.169,0,0,0-2.22.765,2.5,2.5,0,0,0-.84,1.935h0Zm0.48,4.71V37.07h5.13V20.33H20.3Zm13.05,3.15V20.33h-5.13V37.07h5.13V29.45a3.5,3.5,0,0,1,1.125-2.94,5.071,5.071,0,0,1,3.165-.87h1.47V20.15a6.317,6.317,0,0,0-3.285.9,7.276,7.276,0,0,0-2.475,2.43h0Zm14.73-3.36a9.083,9.083,0,0,0-4.38,1.035,7.3,7.3,0,0,0-2.985,2.97A9.345,9.345,0,0,0,39.647,28.7a9.261,9.261,0,0,0,1.08,4.56,7.392,7.392,0,0,0,2.985,2.985,9,9,0,0,0,4.365,1.035,8.313,8.313,0,0,0,5.43-1.785,7.915,7.915,0,0,0,2.76-4.905h-5.43a2.867,2.867,0,0,1-.99,1.68,2.929,2.929,0,0,1-1.89.6,2.741,2.741,0,0,1-2.22-1.065,4.8,4.8,0,0,1-.87-3.105,4.806,4.806,0,0,1,.87-3.1,2.742,2.742,0,0,1,2.22-1.065,2.931,2.931,0,0,1,1.89.6,2.869,2.869,0,0,1,.99,1.68h5.43a7.918,7.918,0,0,0-2.76-4.905,8.316,8.316,0,0,0-5.43-1.785h0Zm15.24,3.36V20.33h-5.13V37.07h5.13V29.45a3.5,3.5,0,0,1,1.125-2.94,5.071,5.071,0,0,1,3.165-.87h1.47V20.15a6.317,6.317,0,0,0-3.285.9,7.276,7.276,0,0,0-2.475,2.43h0Zm13.53-3.36a6.78,6.78,0,0,0-3.7,1.035,7.1,7.1,0,0,0-2.58,2.97,10.322,10.322,0,0,0-.945,4.575,10.345,10.345,0,0,0,.945,4.56,7.077,7.077,0,0,0,2.58,2.985,6.78,6.78,0,0,0,3.7,1.035,6.059,6.059,0,0,0,3.3-.87,5.23,5.23,0,0,0,2.04-2.37v3.03h5.1V20.33h-5.1v3.03a5.235,5.235,0,0,0-2.04-2.37,6.063,6.063,0,0,0-3.3-.87h0Zm1.65,4.5a3.492,3.492,0,0,1,2.655,1.095A4.17,4.17,0,0,1,82.187,28.7a4.18,4.18,0,0,1-1.035,2.97,3.766,3.766,0,0,1-5.31.03,4.232,4.232,0,0,1-1.005-3,4.233,4.233,0,0,1,1.005-3A3.455,3.455,0,0,1,78.5,24.62h0Zm20.37-6.54V13.67q-0.36-.03-1.08-0.03a7.441,7.441,0,0,0-5.265,1.7,6.265,6.265,0,0,0-1.815,4.815v0.18H88.7v4.32h2.01V37.07h5.13V24.65h3.03V20.33h-3.03a2.486,2.486,0,0,1,.63-1.74,2.6,2.6,0,0,1,1.83-.54Zm9.359,14.58a1.935,1.935,0,0,1-1.365-.39,1.88,1.88,0,0,1-.405-1.38V24.65h3.36V20.33h-3.36V16.22h-5.13v4.11h-2.25v4.32h2.25V30.8q0,3.36,1.635,4.815a6.646,6.646,0,0,0,4.575,1.455h2.31V32.66h-1.62Zm9.84-12.54a7.451,7.451,0,0,0-4.83,1.395,4.48,4.48,0,0,0-1.71,3.645,4.053,4.053,0,0,0,.87,2.745,5.049,5.049,0,0,0,2.07,1.455,21.43,21.43,0,0,0,3.06.84,15.212,15.212,0,0,1,2.685.8,1.281,1.281,0,0,1,.825,1.245,1.364,1.364,0,0,1-.45,1.065,1.913,1.913,0,0,1-1.32.4,3.443,3.443,0,0,1-2.055-.57,2.227,2.227,0,0,1-.915-1.65h-4.95a6.329,6.329,0,0,0,2.49,4.29,8.959,8.959,0,0,0,5.43,1.5,8.792,8.792,0,0,0,3.48-.63A5.134,5.134,0,0,0,125,34.91a4.324,4.324,0,0,0,.78-2.55,4.188,4.188,0,0,0-.9-2.82,5.2,5.2,0,0,0-2.13-1.515,25.805,25.805,0,0,0-3.15-.915A13.121,13.121,0,0,1,117,26.33a1.249,1.249,0,0,1-.825-1.17,1.309,1.309,0,0,1,.45-1.065,2.018,2.018,0,0,1,1.32-.375,2.87,2.87,0,0,1,1.845.585,2.66,2.66,0,0,1,.945,1.605h4.8a6.909,6.909,0,0,0-2.385-4.2,7.682,7.682,0,0,0-5.085-1.59h0ZM123.76,0H136l-5,27s-0.87-12-8.965-12H111Z"/>
</svg>
